<svg width="674" height="193" fill="none" xmlns="http://www.w3.org/2000/svg"><path d="M7 24h350.786c132.104 0 204.072 149 169.657 149H7V24Z" fill="#fff"/><path d="M299 50h77.201c33.582 13.365 63.164 56 52.637 56H299c9.884-21.869 9.78-34.132 0-56ZM145 50h111.297c33.707 13.365 16.202 56 5.636 56H145c15.147-20.488 13.349-32.913 0-56ZM0 49h110.448c33.449 13.365 16.078 56 5.592 56H0c15.031-20.488 13.247-32.913 0-56Z" fill="#EAEAEA"/><path d="M7 136h410.467c5.51 1.947 6.556 2.896 0 4H7v-4ZM7 189h659.714c8.856 1.947 10.537 2.896 0 4H7v-4Z" fill="#5D576A"/><path fill="#fff" d="M7 1h379v2H7z"/><path fill="#fff" d="M362 36V0h3v36zM352 36V0h3v36zM116 38V1h3v37zM106 38V1h3v37z"/></svg>