<svg width="256" height="72" fill="none" xmlns="http://www.w3.org/2000/svg"><path d="M32.373 3.764C35.657 1.253 39.72 0 43.853 0H246c5.523 0 10 4.477 10 10v52c0 5.523-4.477 10-10 10H9.915C4.047 72-.6 66.958.12 61.135c3.03-24.5 9.285-39.802 32.252-57.37Z" fill="#fff"/><path d="M44.5 9h17.503C67.526 9 72 13.477 72 19v14H19S39 9 44.5 9Z" fill="#C5D4EA"/><rect x="17" y="39" width="51" height="4" rx="2" fill="#B3C5D7"/><rect x="87" y="9" width="25" height="24" rx="3" fill="#C5D4EA"/><rect x="115" y="9" width="43" height="57" rx="3" fill="#C5D4EA"/><rect x="161" y="9" width="80" height="24" rx="3" fill="#C5D4EA"/></svg>