<svg width="257" height="81" fill="none" xmlns="http://www.w3.org/2000/svg"><rect width="257" height="72" rx="10" fill="#fff"/><ellipse cx="43.5" cy="72" rx="8.5" ry="9" fill="#EAEAEA"/><ellipse cx="43.5" cy="72" rx="8.5" ry="9" fill="#fff"/><circle cx="69" cy="72" r="9" fill="#fff"/><ellipse cx="228.5" cy="72" rx="8.5" ry="9" fill="#fff"/><path d="M10 19c0-5.523 4.477-10 10-10h39c5.523 0 10 4.477 10 10v14H10V19Z" fill="#C5D4EA"/><rect x="10" y="39" width="59" height="4" rx="2" fill="#B3C5D7"/><rect x="89" y="9" width="25" height="24" rx="3" fill="#C5D4EA"/><rect x="116" y="9" width="43" height="24" rx="3" fill="#C5D4EA"/><rect x="162" y="9" width="23" height="24" rx="3" fill="#C5D4EA"/><rect x="189" y="9" width="23" height="24" rx="3" fill="#C5D4EA"/><rect x="215" y="9" width="28" height="24" rx="3" fill="#C5D4EA"/></svg>